<svg xmlns="http://www.w3.org/2000/svg" xmlns:xlink="http://www.w3.org/1999/xlink" viewBox="0 0 701 668"><defs><style>.cls-1{fill:#f2f2f2;}.cls-2{fill:#b3b3b3;}.cls-3{fill:#ccc;}.cls-4{fill:#fff;}.cls-5{fill:#999;}.cls-6{fill:gray;}.cls-7{opacity:0.89;}.cls-8{fill:url(#linear-gradient);}.cls-9{fill:url(#linear-gradient-2);}.cls-10{fill:url(#linear-gradient-3);}.cls-11{fill:url(#linear-gradient-4);}.cls-12{fill:#e6e6e6;}.cls-13{fill:#007492;}.cls-14{fill:#1fa8c8;}.cls-15{fill:#00586d;}.cls-16{fill:#b9f9f9;}.cls-17{fill:#333;}.cls-18{fill:url(#linear-gradient-5);}.cls-19{fill:url(#linear-gradient-6);}.cls-20{fill:url(#linear-gradient-7);}.cls-21{fill:url(#linear-gradient-8);}.cls-22{fill:url(#linear-gradient-9);}.cls-23{fill:url(#linear-gradient-10);}.cls-24{fill:url(#linear-gradient-11);}.cls-25{fill:url(#linear-gradient-12);}.cls-26{fill:url(#linear-gradient-13);}.cls-27{fill:url(#linear-gradient-14);}.cls-28{fill:url(#linear-gradient-15);}.cls-29{fill:#24c3dd;}.cls-30{fill:#bdd0fb;}.cls-31{fill:url(#linear-gradient-16);}.cls-32{fill:#ffb715;}.cls-33{fill:url(#linear-gradient-17);}.cls-34{fill:url(#linear-gradient-18);}.cls-35{fill:url(#linear-gradient-19);}.cls-36{fill:url(#linear-gradient-20);}.cls-37{fill:url(#linear-gradient-21);}</style><linearGradient id="linear-gradient" x1="-8986.65" y1="438.63" x2="-8992.42" y2="510.88" gradientTransform="matrix(-1, 0, 0, 1, -8813.72, 0)" gradientUnits="userSpaceOnUse"><stop offset="0" stop-color="#ff928e"/><stop offset="1" stop-color="#fe7062"/></linearGradient><linearGradient id="linear-gradient-2" x1="-8997.49" y1="437.63" x2="-9003.26" y2="509.87" xlink:href="#linear-gradient"/><linearGradient id="linear-gradient-3" x1="476.32" y1="430.29" x2="469.97" y2="509.77" gradientTransform="translate(946.25 940.49) rotate(-180)" xlink:href="#linear-gradient"/><linearGradient id="linear-gradient-4" x1="465.48" y1="429.18" x2="459.13" y2="508.66" gradientTransform="translate(924.4 940.49) rotate(-180)" xlink:href="#linear-gradient"/><linearGradient id="linear-gradient-5" x1="-1067.87" y1="605.31" x2="-1060.31" y2="605.31" gradientTransform="translate(1260.96)" gradientUnits="userSpaceOnUse"><stop offset="0" stop-color="#a22b25"/><stop offset="1" stop-color="#c0423c"/></linearGradient><linearGradient id="linear-gradient-6" x1="-1095.12" y1="604.93" x2="-1088.6" y2="604.93" xlink:href="#linear-gradient-5"/><linearGradient id="linear-gradient-7" x1="442.46" y1="446.95" x2="373.29" y2="378.11" gradientTransform="matrix(-1, 0, 0, 1, 647.18, 0)" xlink:href="#linear-gradient-5"/><linearGradient id="linear-gradient-8" x1="446.41" y1="442.98" x2="377.24" y2="374.14" gradientTransform="matrix(-1, 0, 0, 1, 647.18, 0)" xlink:href="#linear-gradient-5"/><linearGradient id="linear-gradient-9" x1="382.44" y1="366.24" x2="384.66" y2="388.97" gradientTransform="matrix(-1, 0, 0, 1, 647.18, 0)" xlink:href="#linear-gradient-5"/><linearGradient id="linear-gradient-10" x1="497.77" y1="457.22" x2="451.67" y2="479.4" gradientTransform="matrix(-1, 0, 0, 1, 647.18, 0)" xlink:href="#linear-gradient-5"/><linearGradient id="linear-gradient-11" x1="401.86" y1="437.83" x2="444.51" y2="428.72" gradientTransform="matrix(-1, 0, 0, 1, 647.18, 0)" gradientUnits="userSpaceOnUse"><stop offset="0" stop-color="#09005d"/><stop offset="1" stop-color="#1a0f91"/></linearGradient><linearGradient id="linear-gradient-12" x1="470.79" y1="454.77" x2="448.55" y2="467.28" gradientTransform="matrix(-1, 0, 0, 1, 647.18, 0)" xlink:href="#linear-gradient-5"/><linearGradient id="linear-gradient-13" x1="184.6" y1="422.7" x2="193.64" y2="383.53" gradientTransform="matrix(1, 0, 0, 1, 0, 0)" xlink:href="#linear-gradient-5"/><linearGradient id="linear-gradient-14" x1="435.31" y1="414.95" x2="413.57" y2="439.32" gradientTransform="matrix(-1, 0, 0, 1, 647.18, 0)" xlink:href="#linear-gradient-5"/><linearGradient id="linear-gradient-15" x1="456.16" y1="394.27" x2="426.51" y2="381.42" gradientTransform="matrix(-1, 0, 0, 1, 647.18, 0)" xlink:href="#linear-gradient-5"/><linearGradient id="linear-gradient-16" x1="14196.1" y1="465.29" x2="14129.22" y2="503.46" gradientTransform="matrix(-1, 0, 0, 1, 14589.82, 0)" gradientUnits="userSpaceOnUse"><stop offset="0" stop-color="#febbba"/><stop offset="1" stop-color="#ff928e"/></linearGradient><linearGradient id="linear-gradient-17" x1="463.02" y1="495.6" x2="543.83" y2="475.75" gradientTransform="matrix(1, 0, 0, 1, 0, 0)" xlink:href="#linear-gradient-16"/><linearGradient id="linear-gradient-18" x1="-8389.26" y1="394.69" x2="-8393.8" y2="365.54" gradientTransform="translate(8877.36)" xlink:href="#linear-gradient-16"/><linearGradient id="linear-gradient-19" x1="-8359.17" y1="443.28" x2="-8292.55" y2="443.28" gradientTransform="translate(8877.36)" xlink:href="#linear-gradient-16"/><linearGradient id="linear-gradient-20" x1="-1838.17" y1="387.55" x2="-1817.43" y2="338.04" gradientTransform="translate(1375.34 -2224.88) rotate(-37.95)" xlink:href="#linear-gradient-16"/><linearGradient id="linear-gradient-21" x1="-1830.45" y1="390.78" x2="-1809.71" y2="341.26" gradientTransform="translate(1375.34 -2224.88) rotate(-37.95)" xlink:href="#linear-gradient-16"/></defs><g id="Layer_18" data-name="Layer 18"><rect class="cls-1" x="0.08" y="0.06" width="618.11" height="581.51" rx="63.35"/></g><g id="Layer_28" data-name="Layer 28"><path class="cls-2" d="M482.72,285.27H652.35a0,0,0,0,1,0,0V531.43a19.75,19.75,0,0,1-19.75,19.75H482.72a0,0,0,0,1,0,0V285.27A0,0,0,0,1,482.72,285.27Z"/><rect class="cls-3" x="638.6" y="284.19" width="17.42" height="265.39"/><rect class="cls-3" x="636.45" y="455.78" width="22.79" height="95.75" rx="11.4"/><rect class="cls-3" x="635.02" y="523.81" width="28.01" height="30.44" rx="7.21"/><rect class="cls-4" x="538.28" y="320.9" width="23.45" height="42.18" rx="1.12" transform="translate(1100.01 683.97) rotate(180)"/><rect class="cls-2" x="550.91" y="323.18" width="9.1" height="37.62" rx="0.62" transform="translate(1110.93 683.97) rotate(180)"/><rect class="cls-2" x="539.99" y="323.18" width="9.1" height="37.62" rx="0.62" transform="translate(1089.08 683.97) rotate(180)"/><rect class="cls-4" x="538.28" y="334.96" width="23.2" height="1.2"/><rect class="cls-4" x="538.28" y="347.99" width="23.2" height="1.2"/><rect class="cls-4" x="538.47" y="384.49" width="23.45" height="42.18" rx="1.12" transform="translate(1100.39 811.16) rotate(180)"/><rect class="cls-2" x="551.11" y="386.77" width="9.1" height="37.62" rx="0.62" transform="translate(1111.32 811.16) rotate(180)"/><rect class="cls-2" x="540.18" y="386.77" width="9.1" height="37.62" rx="0.62" transform="translate(1089.47 811.16) rotate(180)"/><rect class="cls-4" x="538.47" y="398.55" width="23.2" height="1.2"/><rect class="cls-4" x="538.47" y="411.58" width="23.2" height="1.2"/><rect class="cls-4" x="538.67" y="451.58" width="23.45" height="42.18" rx="1.12" transform="translate(1100.78 945.34) rotate(180)"/><rect class="cls-2" x="551.3" y="453.86" width="9.1" height="37.62" rx="0.62" transform="translate(1111.71 945.34) rotate(180)"/><rect class="cls-2" x="540.38" y="453.86" width="9.1" height="37.62" rx="0.62" transform="translate(1089.86 945.34) rotate(180)"/><rect class="cls-4" x="538.67" y="465.64" width="23.2" height="1.2"/><rect class="cls-4" x="538.67" y="478.68" width="23.2" height="1.2"/><rect class="cls-4" x="595.66" y="320.22" width="23.45" height="42.18" rx="1.12" transform="translate(1214.78 682.62) rotate(180)"/><rect class="cls-2" x="608.3" y="322.5" width="9.1" height="37.62" rx="0.62" transform="translate(1225.7 682.62) rotate(180)"/><rect class="cls-2" x="597.37" y="322.5" width="9.1" height="37.62" rx="0.62" transform="translate(1203.85 682.62) rotate(180)"/><rect class="cls-4" x="595.66" y="334.29" width="23.2" height="1.2"/><rect class="cls-4" x="595.66" y="347.32" width="23.2" height="1.2"/><rect class="cls-4" x="595.86" y="384.53" width="23.45" height="42.18" rx="1.12" transform="translate(1215.16 811.24) rotate(180)"/><rect class="cls-2" x="608.49" y="386.81" width="9.1" height="37.62" rx="0.62" transform="translate(1226.09 811.24) rotate(180)"/><rect class="cls-2" x="597.57" y="386.81" width="9.1" height="37.62" rx="0.62" transform="translate(1204.24 811.24) rotate(180)"/><rect class="cls-4" x="595.86" y="398.59" width="23.2" height="1.2"/><rect class="cls-4" x="595.86" y="411.63" width="23.2" height="1.2"/><rect class="cls-4" x="596.05" y="451.62" width="23.45" height="42.18" rx="1.12" transform="translate(1215.55 945.42) rotate(180)"/><rect class="cls-2" x="608.69" y="453.9" width="9.1" height="37.62" rx="0.62" transform="translate(1226.48 945.42) rotate(180)"/><rect class="cls-2" x="597.76" y="453.9" width="9.1" height="37.62" rx="0.62" transform="translate(1204.63 945.42) rotate(180)"/><rect class="cls-4" x="596.05" y="465.69" width="23.2" height="1.2"/><rect class="cls-4" x="596.05" y="478.72" width="23.2" height="1.2"/><path class="cls-5" d="M670.3,294.75h-177L397,227.19H632.4l44.88,61.89C679.64,291.73,675.92,294.75,670.3,294.75Z"/><path class="cls-6" d="M633.33,230.49l-230,3.31L397.17,223l220-2.1c8.25,0,14.95,2.61,14.95,5.84Z"/><path class="cls-2" d="M79.33,287.55H229.2A19.75,19.75,0,0,1,249,307.3v246a0,0,0,0,1,0,0H79.33a0,0,0,0,1,0,0V287.55A0,0,0,0,1,79.33,287.55Z" transform="translate(328.29 840.83) rotate(180)"/><rect class="cls-3" x="75.65" y="286.47" width="17.42" height="267.46" transform="translate(168.73 840.41) rotate(180)"/><rect class="cls-3" x="72.43" y="459.4" width="22.79" height="96.49" rx="7.94" transform="translate(167.66 1015.3) rotate(180)"/><rect class="cls-3" x="68.65" y="527.97" width="28.01" height="30.67" rx="7.21" transform="translate(165.3 1086.61) rotate(180)"/><rect class="cls-4" x="169.95" y="323.18" width="23.45" height="42.18" rx="1.12"/><rect class="cls-2" x="171.66" y="325.46" width="9.1" height="37.62" rx="0.62"/><rect class="cls-2" x="182.59" y="325.46" width="9.1" height="37.62" rx="0.62"/><rect class="cls-4" x="170.2" y="337.24" width="23.2" height="1.2" transform="translate(363.6 675.69) rotate(180)"/><rect class="cls-4" x="170.2" y="350.28" width="23.2" height="1.2" transform="translate(363.6 701.76) rotate(180)"/><rect class="cls-4" x="169.76" y="386.77" width="23.45" height="42.18" rx="1.12"/><rect class="cls-2" x="171.47" y="389.05" width="9.1" height="37.62" rx="0.62"/><rect class="cls-2" x="182.39" y="389.05" width="9.1" height="37.62" rx="0.62"/><rect class="cls-4" x="170" y="400.84" width="23.2" height="1.2" transform="translate(363.21 802.87) rotate(180)"/><rect class="cls-4" x="170" y="413.87" width="23.2" height="1.2" transform="translate(363.21 828.94) rotate(180)"/><g class="cls-7"><rect class="cls-4" x="169.56" y="453.86" width="23.45" height="42.18" rx="1.12"/><rect class="cls-8" x="171.27" y="456.14" width="9.1" height="37.62" rx="0.62"/><rect class="cls-9" x="182.2" y="456.14" width="9.1" height="37.62" rx="0.62"/><rect class="cls-4" x="169.81" y="467.93" width="23.2" height="1.2" transform="translate(362.82 937.06) rotate(180)"/><rect class="cls-4" x="169.81" y="480.96" width="23.2" height="1.2" transform="translate(362.82 963.12) rotate(180)"/></g><rect class="cls-4" x="112.57" y="322.51" width="23.45" height="42.18" rx="1.12"/><rect class="cls-2" x="114.28" y="324.79" width="9.1" height="37.62" rx="0.62"/><rect class="cls-2" x="125.2" y="324.79" width="9.1" height="37.62" rx="0.62"/><rect class="cls-4" x="112.81" y="336.57" width="23.2" height="1.2" transform="translate(248.83 674.34) rotate(180)"/><rect class="cls-4" x="112.81" y="349.6" width="23.2" height="1.2" transform="translate(248.83 700.41) rotate(180)"/><rect class="cls-4" x="112.37" y="386.81" width="23.45" height="42.18" rx="1.12"/><rect class="cls-2" x="114.08" y="389.09" width="9.1" height="37.62" rx="0.62"/><rect class="cls-2" x="125.01" y="389.09" width="9.1" height="37.62" rx="0.62"/><rect class="cls-4" x="112.62" y="400.88" width="23.2" height="1.2" transform="translate(248.44 802.96) rotate(180)"/><rect class="cls-4" x="112.62" y="413.91" width="23.2" height="1.2" transform="translate(248.44 829.02) rotate(180)"/><rect class="cls-4" x="112.18" y="453.9" width="23.45" height="42.18" rx="1.12"/><rect class="cls-2" x="113.89" y="456.18" width="9.1" height="37.62" rx="0.62"/><rect class="cls-2" x="124.81" y="456.18" width="9.1" height="37.62" rx="0.62"/><rect class="cls-4" x="112.42" y="467.97" width="23.2" height="1.2" transform="translate(248.05 937.14) rotate(180)"/><rect class="cls-4" x="112.42" y="481" width="23.2" height="1.2" transform="translate(248.05 963.2) rotate(180)"/><path class="cls-5" d="M61.38,297h177l96.23-62.19H99.28l-44.88,57C52,294.25,55.76,297,61.38,297Z"/><path class="cls-6" d="M96.75,234.73,326.8,238l6.12-10.81-220-2.11c-8.26,0-14.95,2.62-14.95,5.84Z"/><rect class="cls-2" x="218.42" y="289.57" width="287.63" height="263.72"/><rect class="cls-3" x="498.3" y="286.54" width="17.42" height="265.62"/><rect class="cls-3" x="496.15" y="458.27" width="22.79" height="95.83" rx="11.4"/><rect class="cls-3" x="494.72" y="526.36" width="28.01" height="30.46" rx="7.21"/><path class="cls-6" d="M206.73,288.59l314.43,1.09a2.24,2.24,0,0,0,1.21-4.13L369.73,187.79l-164,97.28A1.89,1.89,0,0,0,206.73,288.59Z"/><polygon class="cls-2" points="218.42 290.25 506.05 289.57 369.73 200.52 218.42 290.25"/><rect class="cls-3" x="218.42" y="286.54" width="17.42" height="264.64"/><rect class="cls-3" x="216.27" y="457.3" width="22.79" height="95.83" rx="10.72"/><rect class="cls-3" x="214.83" y="525.39" width="28.01" height="30.46" rx="7.21"/><rect class="cls-3" x="309.17" y="294.28" width="17.42" height="265.62"/><rect class="cls-3" x="307.02" y="466.02" width="22.79" height="95.83" rx="7.62"/><rect class="cls-3" x="305.58" y="534.11" width="28.01" height="30.46" rx="7.21"/><rect class="cls-3" x="416.99" y="293.03" width="17.42" height="265.62"/><rect class="cls-3" x="414.84" y="464.77" width="22.79" height="95.83" rx="6.94"/><rect class="cls-3" x="413.4" y="532.86" width="28.01" height="30.46" rx="7.21"/><rect class="cls-4" x="262.13" y="447.99" width="23.45" height="46.48" rx="1.12" transform="translate(547.71 942.46) rotate(180)"/><rect class="cls-2" x="274.77" y="450.5" width="9.1" height="41.45" rx="0.62" transform="translate(558.64 942.46) rotate(180)"/><rect class="cls-2" x="263.84" y="450.5" width="9.1" height="41.45" rx="0.62" transform="translate(536.79 942.46) rotate(180)"/><rect class="cls-4" x="262.13" y="463.49" width="23.2" height="1.33"/><rect class="cls-4" x="262.13" y="477.85" width="23.2" height="1.33"/><rect class="cls-4" x="261.58" y="384.97" width="23.45" height="46.48" rx="1.12" transform="translate(546.61 816.42) rotate(180)"/><rect class="cls-2" x="274.21" y="387.49" width="9.1" height="41.45" rx="0.62" transform="translate(557.53 816.42) rotate(180)"/><rect class="cls-2" x="263.29" y="387.49" width="9.1" height="41.45" rx="0.62" transform="translate(535.68 816.42) rotate(180)"/><rect class="cls-4" x="261.58" y="400.47" width="23.2" height="1.33"/><rect class="cls-4" x="261.58" y="414.83" width="23.2" height="1.33"/><g class="cls-7"><rect class="cls-4" x="455.94" y="447.01" width="23.45" height="46.48" rx="1.12" transform="translate(935.33 940.49) rotate(180)"/><rect class="cls-10" x="468.57" y="449.52" width="9.1" height="41.45" rx="0.62" transform="translate(946.25 940.49) rotate(180)"/><rect class="cls-11" x="457.65" y="449.52" width="9.1" height="41.45" rx="0.62" transform="translate(924.4 940.49) rotate(180)"/><rect class="cls-4" x="455.94" y="462.5" width="23.2" height="1.33"/><rect class="cls-4" x="455.94" y="476.86" width="23.2" height="1.33"/></g><rect class="cls-4" x="455.39" y="383.99" width="23.45" height="46.48" rx="1.12" transform="translate(934.22 814.45) rotate(180)"/><rect class="cls-2" x="468.02" y="386.5" width="9.1" height="41.45" rx="0.62" transform="translate(945.15 814.45) rotate(180)"/><rect class="cls-2" x="457.1" y="386.5" width="9.1" height="41.45" rx="0.62" transform="translate(923.3 814.45) rotate(180)"/><rect class="cls-4" x="455.39" y="399.48" width="23.2" height="1.33"/><rect class="cls-4" x="455.39" y="413.85" width="23.2" height="1.33"/><circle class="cls-12" cx="369.8" cy="249.85" r="15.41"/><circle class="cls-6" cx="369.8" cy="249.85" r="13.15"/><path class="cls-3" d="M399.86,550.41H345.41V473.79c4.91-30.06,52.72-29,54.45,0Z"/><path class="cls-5" d="M396.29,550.41H349V477.76c4.26-28.5,45.81-27.5,47.31,0Z"/><path class="cls-12" d="M346.35,541.44h52.83a3.17,3.17,0,0,1,3.17,3.17v4a0,0,0,0,1,0,0H343.18a0,0,0,0,1,0,0v-4A3.17,3.17,0,0,1,346.35,541.44Z"/><path class="cls-3" d="M346.35,546h52.83a3.17,3.17,0,0,1,3.17,3.17v4a0,0,0,0,1,0,0H343.18a0,0,0,0,1,0,0v-4A3.17,3.17,0,0,1,346.35,546Z"/><path class="cls-4" d="M455.43,368.38h22.64a.41.41,0,0,0,.41-.41V321.9c-.25-14.58-22.46-14.94-23.45,0V368A.4.4,0,0,0,455.43,368.38Z"/><rect class="cls-2" x="467.66" y="324.41" width="9.1" height="41.45" rx="0.62" transform="translate(944.43 690.28) rotate(180)"/><rect class="cls-2" x="456.74" y="324.41" width="9.1" height="41.45" rx="0.62" transform="translate(922.58 690.28) rotate(180)"/><rect class="cls-4" x="455.03" y="337.4" width="23.2" height="1.33"/><rect class="cls-4" x="455.03" y="351.76" width="23.2" height="1.33"/><path class="cls-2" d="M456.85,323.11c.54-13.56,19.52-14.31,20.06,0Z"/><path class="cls-4" d="M336.86,368.38h22.65a.4.4,0,0,0,.4-.41V321.9c-.24-14.58-22.46-14.94-23.45,0V368A.4.4,0,0,0,336.86,368.38Z"/><rect class="cls-2" x="349.1" y="324.41" width="9.1" height="41.45" rx="0.62" transform="translate(707.3 690.28) rotate(180)"/><rect class="cls-2" x="338.17" y="324.41" width="9.1" height="41.45" rx="0.62" transform="translate(685.45 690.28) rotate(180)"/><rect class="cls-4" x="336.46" y="337.4" width="23.2" height="1.33"/><rect class="cls-4" x="336.46" y="351.76" width="23.2" height="1.33"/><path class="cls-2" d="M338.28,323.11c.54-13.56,19.53-14.31,20.06,0Z"/><path class="cls-4" d="M380.56,368.38h22.65a.4.4,0,0,0,.4-.41V321.9c-.24-14.58-22.46-14.94-23.45,0V368A.4.4,0,0,0,380.56,368.38Z"/><rect class="cls-2" x="392.8" y="324.41" width="9.1" height="41.45" rx="0.62" transform="translate(794.7 690.28) rotate(180)"/><rect class="cls-2" x="381.87" y="324.41" width="9.1" height="41.45" rx="0.62" transform="translate(772.85 690.28) rotate(180)"/><rect class="cls-4" x="380.16" y="337.4" width="23.2" height="1.33"/><rect class="cls-4" x="380.16" y="351.76" width="23.2" height="1.33"/><path class="cls-2" d="M382,323.11c.53-13.56,19.52-14.31,20.06,0Z"/><path class="cls-4" d="M262.71,368.38h22.65a.4.4,0,0,0,.4-.41V321.9c-.24-14.58-22.46-14.94-23.45,0V368A.4.4,0,0,0,262.71,368.38Z"/><rect class="cls-2" x="274.95" y="324.41" width="9.1" height="41.45" rx="0.62" transform="translate(559 690.28) rotate(180)"/><rect class="cls-2" x="264.02" y="324.41" width="9.1" height="41.45" rx="0.62" transform="translate(537.15 690.28) rotate(180)"/><rect class="cls-4" x="262.31" y="337.4" width="23.2" height="1.33"/><rect class="cls-4" x="262.31" y="351.76" width="23.2" height="1.33"/><path class="cls-2" d="M264.14,323.11c.53-13.56,19.52-14.31,20.06,0Z"/><path class="cls-3" d="M204.29,293.66H523.41a0,0,0,0,1,0,0v0a13,13,0,0,1-13,13H217.25a13,13,0,0,1-13-13v0a0,0,0,0,1,0,0Z"/><rect class="cls-3" x="203.19" y="286.54" width="322.79" height="8.55" rx="4.27"/><path class="cls-13" d="M131.72,217.45l-56.17-7.53,16.82,35.31c1.77,3.64,5.2,6,8.73,5.91,32.33-.53,60.28-7.76,80.05-27.5a9.73,9.73,0,0,0,2.64-7.32l-1.8-40S132.46,217.52,131.72,217.45Z"/><path class="cls-14" d="M54.84,203.09,122,157.73c.55-.49,80.65-6.18,80.65-6.18,3.08.18,4.58,4.66,2.21,6.63l-65.05,55.39A19.09,19.09,0,0,1,125.16,218L57,209.65C54,209.36,52.6,205.06,54.84,203.09Z"/><path class="cls-15" d="M199,176.76s-8.34,27.61,11.42,36.63a1.09,1.09,0,0,0,1.56-.92L213.69,199C215,189.05,199,176.76,199,176.76Z"/><polygon class="cls-15" points="200.17 180.34 198.56 180.89 193.45 166.01 196.13 163.94 200.17 180.34"/><path class="cls-16" d="M128,213.38c-.47,0-.94,0-1.41-.07l-71.34-7.48a.75.75,0,0,1-.67-.83.73.73,0,0,1,.82-.67l71.35,7.48a12.34,12.34,0,0,0,9.11-2.78l65.79-55a.75.75,0,1,1,1,1.15l-65.79,55A13.85,13.85,0,0,1,128,213.38Z"/><path class="cls-17" d="M193.81,605.34s-.88,5-1.32,9.93a3.4,3.4,0,0,0,3.26,3.68c6.58.28,20.65.81,25.7.59a1.11,1.11,0,0,0,1-1.52h0a2.52,2.52,0,0,0-1.27-1.34L197.91,606Z"/><path class="cls-18" d="M193.08,602.4l.71,6s4.08,1.9,6.86-.24L199,601.48Z"/><path class="cls-17" d="M193.62,490.17c-.31,1.55-1.65,77.79,6.5,112a1.15,1.15,0,0,1-.68,1.35,20.23,20.23,0,0,1-6.63,1.35,2,2,0,0,1-2-1.44c-2.33-7.92-13.5-47.64-15-85.58-1.63-42.39,0-1.44,0-1.44l1-26.21Z"/><path class="cls-17" d="M167.07,607.94s-1.41,2.52-2.77,9.21a2.08,2.08,0,0,0,1.83,2.49c2.17.21,5.52.49,8.2.47a2.07,2.07,0,0,0,2-2.31,17.49,17.49,0,0,0-4.08-9.58Z"/><path class="cls-19" d="M165.83,600.26l1.66,9s1.63,1.22,4.87.33l-.79-9.71Z"/><path class="cls-17" d="M161.36,492.51c-6.66,40.22,1.45,99.41,4.18,111a1.81,1.81,0,0,0,1.46,1.37,12.09,12.09,0,0,0,5.21-.21,1.65,1.65,0,0,0,1.2-1.52c.36-9.37-.3-66.87,5.91-89.6a5.18,5.18,0,0,1,2-2.84l12.06-8.57.92-13.85Z"/><path class="cls-14" d="M203.83,416.29c-20-.33-42,5.24-42,5.24-6,34.74-1,74.81-1,74.81,15.46,4.06,32.9-2.48,32.9-2.48,2.57-14.52,14.57-55.38,14.57-55.38a65.82,65.82,0,0,0,24.42-7.75c-5-5.86-7.43-13.31-8.47-17.71A66.93,66.93,0,0,1,203.83,416.29Z"/><path class="cls-20" d="M262.83,386.87a3.81,3.81,0,0,0-4.44-1.25C255.45,398,240,408.1,224.2,413c1,4.4,3.42,11.85,8.47,17.71C258.94,416,262.83,386.87,262.83,386.87Z"/><path class="cls-21" d="M262.36,387.47c.2.65-2.18,1.65-3.58-1,0-1.28-.82-6.76-.06-7.81,4.07-5.55,12-12.51,12-12.51a1.88,1.88,0,0,1,.23,2.61l-3.83,4a18.73,18.73,0,0,1,2.24,4.42,5.35,5.35,0,0,1-.54,4c-.67,1.21-1.59,2.79-2.45,4A5.3,5.3,0,0,1,262.36,387.47Z"/><path class="cls-22" d="M265.42,375.32l-3.49,3-1.1,2.94,3.11,3.46s1.05-5.85,1.83-7.11S266.14,375.69,265.42,375.32Z"/><path class="cls-14" d="M169.48,440.87l-7.66-19.34s-18.66,12.68-21.73,28.75a44.17,44.17,0,0,1,16.22,4.35C157.69,447,169.48,440.87,169.48,440.87Z"/><path class="cls-23" d="M185.78,459.07s-20.94,11.84-28,1.73a7.94,7.94,0,0,1-1.46-6.17,44.17,44.17,0,0,0-16.22-4.35,22.26,22.26,0,0,0,2.41,15.21c12.38,22.65,46.06-1.25,46.06-1.25Z"/><polygon class="cls-4" points="196.22 436.15 235.94 432.99 231.49 428.35 194.16 433.31 196.22 436.15"/><path class="cls-15" d="M184.51,475.6,196,435.67a1.17,1.17,0,0,1,1-.84c2.07-.24,8.07-.92,15-1.5,8.35-.71,18-1.28,23.84-.79a1.17,1.17,0,0,1,.95,1.68c-3.29,6.66-16.84,33.77-23.63,42.65a1.15,1.15,0,0,1-.94.46l-26.52-.24A1.17,1.17,0,0,1,184.51,475.6Z"/><path class="cls-24" d="M192.75,432.59l38.56-4.79a1.46,1.46,0,0,1,1.33.57h0a.46.46,0,0,1-.31.72l-38.72,4.8Z"/><path class="cls-15" d="M196.93,434.83l-12.07,42-4.32-2.65a1.21,1.21,0,0,1-.52-1.37l12.14-39.93a.42.42,0,0,1,.59-.25Z"/><path class="cls-25" d="M180.88,468.82c-.72-.26,1.21-9.14,2.74-11.13s2.27-4.76,6.42-4.1a61.52,61.52,0,0,1,9,2.41,2.37,2.37,0,0,1-3.4,2.05l2,1.52s-.28,2.42-2.95,1.13l1.82,2a2.43,2.43,0,0,1-3.1.72C183.57,459.75,186.44,469.61,180.88,468.82Z"/><path class="cls-26" d="M183.6,400.07l-6.36,18.38a.67.67,0,0,0,.31.8c1.73,1,8,3.72,15.49-1a3.12,3.12,0,0,0,1.44-2.23l2.06-15.91Z"/><path class="cls-27" d="M197.43,383.05s7,13.14,6.08,18.45-9.54,4.92-17.09.61l-5.28-14.18Z"/><path class="cls-17" d="M186.75,395.14a.54.54,0,0,0,.24-.79,14.13,14.13,0,0,1-2-4.12s-1.25-.8,3.2-1.87,11.08-2.72,12.47-6.5-2.21-13-7.91-5.58a.55.55,0,0,1-.86,0c-.93-1.22-3.39-3.74-6.79-2.21-3.2,1.43-3.55,3.77-3.51,4.95a.55.55,0,0,1-.64.55c-1.61-.31-5.48-.58-7.29,3.4-1.49,3.27-.52,5.12.36,6a.54.54,0,0,1-.23.9c-1.06.32-2.43,1.22-2.29,3.71.19,3.43,4,3.13,5.12,3a.57.57,0,0,1,.48.17c.94,1,5.16,5.44,9.73,6a.54.54,0,0,0,.57-.72l-2-5.75a.54.54,0,0,1,.3-.67Z"/><path class="cls-28" d="M187.54,396s-5-3.41-5.33-.54,4.48,4.16,6.87,3.09Z"/><path class="cls-29" d="M353.15,602.93h300v-60h-300C359.57,542.9,359.57,602.93,353.15,602.93Z"/><path class="cls-13" d="M653.1,587.91V560.43c0-9.68-5.93-17.53-13.24-17.53H354.42A10.42,10.42,0,0,1,344,532.48h0a3.16,3.16,0,0,1,3.16-3.16h312c7.15,0,18.51,11.25,18.51,25.12v38.37c0,13.09-11,23.69-17.77,23.69H348.81a4.8,4.8,0,0,1-4.8-4.8,8.76,8.76,0,0,1,8.77-8.77h289C648,602.93,653.1,596.2,653.1,587.91Z"/><path class="cls-16" d="M644.78,556H363.54a.76.76,0,0,1,0-1.51H644.78a.76.76,0,0,1,0,1.51Z"/><path class="cls-16" d="M644.78,564.88H363.54a.76.76,0,0,1,0-1.51H644.78a.76.76,0,0,1,0,1.51Z"/><path class="cls-16" d="M644.78,573.79H363.54a.76.76,0,0,1,0-1.51H644.78a.76.76,0,0,1,0,1.51Z"/><path class="cls-16" d="M644.78,582.7H363.54a.76.76,0,0,1,0-1.51H644.78a.76.76,0,0,1,0,1.51Z"/><path class="cls-16" d="M644.78,591.61H363.54a.76.76,0,0,1,0-1.51H644.78a.76.76,0,0,1,0,1.51Z"/><rect class="cls-14" x="410.16" y="475.5" width="244.09" height="58.92" rx="14.21" transform="translate(1064.41 1009.92) rotate(180)"/><rect class="cls-29" x="597.99" y="482.27" width="28.68" height="45.38" rx="5.46"/><rect class="cls-29" x="583.02" y="482.27" width="10.76" height="45.38" rx="2.76"/><path class="cls-17" d="M491.46,357.33s0,2.4,7.74,2.25c4.32-.08,12.32-1,16.84,5.72a9.24,9.24,0,0,0,10.57,3.78c9.93-3.23,26.56-5.61,36.9,9.26,7.89,11.34,4,19.11-1.73,24a10.38,10.38,0,0,0-1.63,14.24c3.27,4.18,4.59,10.25-1.32,18.56-13.25,18.63-47.45-4.38-47.45-4.38L479.45,376.6Z"/><path class="cls-30" d="M555.58,396.41a.67.67,0,0,1-.3-.08.1.1,0,0,1,0-.12.09.09,0,0,1,.13,0c.43.22.89-.32,1.1-.68,2.8-4.81,2.19-11.53-1.47-16.34a14.23,14.23,0,0,0-8.32-5.49,22.22,22.22,0,0,0-6.76-.05c-3.7.4-7.42,1-11.07,1.72l-.88.19a33,33,0,0,1-6.58.92h0a10.52,10.52,0,0,1-7-2.33,15.53,15.53,0,0,1-2.58-3.34A12.18,12.18,0,0,0,508.5,367a.09.09,0,0,1,0-.13.09.09,0,0,1,.13,0,12.54,12.54,0,0,1,3.29,3.87,15.55,15.55,0,0,0,2.55,3.3,10.31,10.31,0,0,0,6.9,2.28h0a32.72,32.72,0,0,0,6.54-.92l.89-.18c3.65-.75,7.37-1.33,11.08-1.72a21.93,21.93,0,0,1,6.81.05,14.37,14.37,0,0,1,8.44,5.55c3.71,4.87,4.32,11.68,1.48,16.56A1.42,1.42,0,0,1,555.58,396.41Z"/><path class="cls-30" d="M555.62,394.09h0a.1.1,0,0,1-.08-.11,14.59,14.59,0,0,0-.71-8.58,9.11,9.11,0,0,0-6.37-5.42.09.09,0,0,1-.07-.11.1.1,0,0,1,.11-.08,9.35,9.35,0,0,1,6.51,5.53,15,15,0,0,1,.72,8.69A.1.1,0,0,1,555.62,394.09Z"/><path class="cls-31" d="M403.88,527.52c.08,0,42.5-74.32,48.24-81.31a4.42,4.42,0,0,1,4-1.6L467.92,446l13.91,30.1-23.17-13.5c2.29,15.86-27.48,39.43-37.69,48a2.34,2.34,0,0,0-.18,3.41l4.07,4.27a46.79,46.79,0,0,1-23.12,13.15Z"/><path class="cls-32" d="M422.51,516a6,6,0,0,1,3.48,3.15,2.65,2.65,0,0,1-1,3.06c-4.28,3.07-18.41,13-24.93,14.92a.74.74,0,0,1-.92-.87c.33-1.52,1.41-4.54,4.9-9l-.31.63a.91.91,0,0,0,1.25,1.2C409.34,526.69,418.22,521.3,422.51,516Z"/><path class="cls-33" d="M420.41,545.75c.07,0,6.43-15.38,6.5-15.42,5.84-35.53,20.08-66,24.28-74a4.43,4.43,0,0,1,3.56-2.36l11.88-1,19.71,26.66-25.42-8.53c5.45,15.07-18.93,44.17-27.19,54.66a2.34,2.34,0,0,0,.51,3.38l4.85,3.36a46.9,46.9,0,0,1-20,17.56Z"/><path class="cls-32" d="M436.32,530.73a6,6,0,0,1,4.05,2.39,2.65,2.65,0,0,1-.36,3.19c-3.57,3.87-15.41,16.43-21.4,19.65a.73.73,0,0,1-1.08-.66c0-1.55.47-4.73,3-9.78l-.18.69a.9.9,0,0,0,1.47.91C425.58,543.83,433.19,536.76,436.32,530.73Z"/><path class="cls-17" d="M522.24,447.37s10.75,16,11.63,23.28-3,9.81-14.22,10.74c-33.48,2.77-50-7.26-50-7.26-2.29-14.61-3.92-18.32-23-26.26,0,0,24.19,1.92,29.06,0S522.24,447.37,522.24,447.37Z"/><path class="cls-32" d="M493.18,445.25s-12.52-11.91-18.68-19.81a16.75,16.75,0,0,1-2.84-15.07c2.82-9.48,7.81-19.29,8.27-20.82.7-2.34,14.73-2.24,14.73-2.24s27.62,17.92,38.47,48.28l-12.19,3.79s-7.21-12.1-14.33-19.79c0,0,12.33,16.29,12.76,23Z"/><path class="cls-34" d="M478.23,376.46c.15.49,3.81,12.63,4.1,12.89s8,.66,11.68-1.83l-7.44-16.46Z"/><path class="cls-35" d="M469.33,450l9.4-10.24,10.86,2.93s12.67,2,19.91,0l7.25-2,16.38-5.1,2.57,7.27a4.38,4.38,0,0,1-1.6,5,29.21,29.21,0,0,1-4.13,2.57c-2.16,1-49.69.3-49.69.3Z"/><path class="cls-15" d="M500.46,454h-.1L457.1,454a1.94,1.94,0,1,1,0-3.87l43.25.05a1.94,1.94,0,0,1,.1,3.87Z"/><path class="cls-15" d="M418.22,414.73h36a6.87,6.87,0,0,1,6.21,3.94L477.11,454H432.34a4.16,4.16,0,0,1-3.88-2.64l-12.92-32.67A2.89,2.89,0,0,1,418.22,414.73Z"/><path class="cls-14" d="M443.6,432.84c.78,2.42.2,4.78-1.29,5.26s-3.34-1.1-4.12-3.52-.2-4.78,1.29-5.26S442.82,430.41,443.6,432.84Z"/><path class="cls-36" d="M471.31,360s-3.28,5.89-1.09,15.58,7.23,11,10.71,9,8.09-5.71,9.47-14.14S475.77,352.56,471.31,360Z"/><path class="cls-17" d="M484.13,369.25s-4.39-13.24-13.67-6.2l-1,3.2s-7.86-3.12-4.46-10.18,11.63-9.84,19.8-4.22,12.47,10.29,11.33,16.91-5.9,3.84-5.9,3.84-.47-5-2.73-6.11-2.59,2.61-2.59,2.61Z"/><path class="cls-37" d="M486.06,371.12s-2.3-6.79,1.86-6.61,1.82,6.51.75,8.8Z"/></g></svg>